<svg width="843" height="784" viewBox="0 0 843 784" fill="none" xmlns="http://www.w3.org/2000/svg">
<g clip-path="url(#clip0_4:539)">
<path d="M250.351 246.97C247.87 351.857 372.206 458.927 527.407 458.927C682.607 458.927 929.766 252.148 812.381 246.97C586.197 236.994 508.686 131.659 531.366 56.9897C571.983 -76.7376 255.235 40.4489 250.351 246.97Z" fill="#3F3D56"/>
<path d="M461.641 165.165L459.772 163.8L460.962 161.656L460.452 161.284L459.263 163.428L457.395 162.064L457.07 162.648L458.939 164.013L457.749 166.157L458.259 166.529L459.448 164.385L461.316 165.749L461.641 165.165Z" fill="#F9A826"/>
<path d="M600.589 320.421L598.721 319.056L599.91 316.912L599.4 316.541L598.211 318.685L596.343 317.32L596.018 317.904L597.887 319.269L596.698 321.413L597.208 321.786L598.396 319.642L600.265 321.005L600.589 320.421Z" fill="#F9A826"/>
<path d="M375.712 301.539L373.844 300.174L375.033 298.03L374.523 297.658L373.335 299.802L371.466 298.438L371.142 299.022L373.01 300.387L371.821 302.531L372.331 302.903L373.519 300.759L375.388 302.123L375.712 301.539Z" fill="#F9A826"/>
<path d="M543.913 402.246L542.044 400.881L543.234 398.737L542.723 398.365L541.535 400.509L539.667 399.145L539.342 399.729L541.211 401.094L540.021 403.238L540.531 403.61L541.72 401.466L543.588 402.83L543.913 402.246Z" fill="#F9A826"/>
<path d="M387.596 363.431L385.728 362.067L386.917 359.922L386.407 359.551L385.218 361.695L383.35 360.33L383.025 360.915L384.894 362.28L383.705 364.424L384.215 364.796L385.403 362.652L387.272 364.016L387.596 363.431Z" fill="#F9A826"/>
<path d="M764.219 312.029L762.35 310.664L763.54 308.52L763.03 308.149L761.841 310.293L759.973 308.928L759.648 309.512L761.517 310.877L760.328 313.021L760.838 313.394L762.026 311.249L763.894 312.613L764.219 312.029Z" fill="#F9A826"/>
<path d="M349.202 185.096L347.334 183.731L348.523 181.587L348.013 181.216L346.825 183.36L344.956 181.995L344.632 182.58L346.5 183.944L345.311 186.089L345.821 186.461L347.009 184.317L348.878 185.681L349.202 185.096Z" fill="#F9A826"/>
<path d="M505.519 208.677L502.903 206.768L504.568 203.766L503.855 203.245L502.19 206.247L499.575 204.336L499.12 205.156L501.737 207.065L500.072 210.067L500.785 210.589L502.45 207.586L505.065 209.497L505.519 208.677Z" fill="white"/>
<path d="M411.364 248.353C412.878 248.353 414.106 246.944 414.106 245.206C414.106 243.468 412.878 242.059 411.364 242.059C409.849 242.059 408.621 243.468 408.621 245.206C408.621 246.944 409.849 248.353 411.364 248.353Z" fill="#F9A826"/>
<path d="M304.41 248.353C305.925 248.353 307.152 246.944 307.152 245.206C307.152 243.468 305.925 242.059 304.41 242.059C302.895 242.059 301.668 243.468 301.668 245.206C301.668 246.944 302.895 248.353 304.41 248.353Z" fill="#F9A826"/>
<path d="M490.893 132.96C492.408 132.96 493.636 131.551 493.636 129.813C493.636 128.075 492.408 126.666 490.893 126.666C489.379 126.666 488.151 128.075 488.151 129.813C488.151 131.551 489.379 132.96 490.893 132.96Z" fill="#F9A826"/>
<path d="M465.297 324.933C466.812 324.933 468.04 323.524 468.04 321.786C468.04 320.047 466.812 318.638 465.297 318.638C463.783 318.638 462.555 320.047 462.555 321.786C462.555 323.524 463.783 324.933 465.297 324.933Z" fill="#F9A826"/>
<path d="M463.469 257.795C464.479 257.795 465.297 256.855 465.297 255.697C465.297 254.538 464.479 253.599 463.469 253.599C462.459 253.599 461.641 254.538 461.641 255.697C461.641 256.855 462.459 257.795 463.469 257.795Z" fill="#F9A826"/>
<path d="M650.866 350.109C651.876 350.109 652.695 349.17 652.695 348.011C652.695 346.853 651.876 345.913 650.866 345.913C649.857 345.913 649.038 346.853 649.038 348.011C649.038 349.17 649.857 350.109 650.866 350.109Z" fill="#FF6584"/>
<path d="M371.142 235.765C372.151 235.765 372.97 234.826 372.97 233.667C372.97 232.508 372.151 231.569 371.142 231.569C370.132 231.569 369.313 232.508 369.313 233.667C369.313 234.826 370.132 235.765 371.142 235.765Z" fill="#FF6584"/>
<path d="M485.408 65.822C486.418 65.822 487.237 64.8827 487.237 63.724C487.237 62.5653 486.418 61.6259 485.408 61.6259C484.399 61.6259 483.58 62.5653 483.58 63.724C483.58 64.8827 484.399 65.822 485.408 65.822Z" fill="#FF6584"/>
<path d="M410.449 163.382C411.459 163.382 412.278 162.443 412.278 161.284C412.278 160.125 411.459 159.186 410.449 159.186C409.44 159.186 408.621 160.125 408.621 161.284C408.621 162.443 409.44 163.382 410.449 163.382Z" fill="#F9A826"/>
<path d="M433.303 93.0968C434.312 93.0968 435.131 92.1575 435.131 90.9988C435.131 89.84 434.312 88.9007 433.303 88.9007C432.293 88.9007 431.474 89.84 431.474 90.9988C431.474 92.1575 432.293 93.0968 433.303 93.0968Z" fill="white"/>
<path d="M706.629 282.971C708.143 282.971 709.371 281.562 709.371 279.824C709.371 278.086 708.143 276.677 706.629 276.677C705.114 276.677 703.886 278.086 703.886 279.824C703.886 281.562 705.114 282.971 706.629 282.971Z" fill="#F9A826"/>
<path d="M524.716 294.511C526.231 294.511 527.458 293.102 527.458 291.364C527.458 289.626 526.231 288.216 524.716 288.216C523.201 288.216 521.974 289.626 521.974 291.364C521.974 293.102 523.201 294.511 524.716 294.511Z" fill="#F9A826"/>
<path d="M478.095 376.335C483.144 376.335 487.237 371.638 487.237 365.845C487.237 360.051 483.144 355.354 478.095 355.354C473.047 355.354 468.954 360.051 468.954 365.845C468.954 371.638 473.047 376.335 478.095 376.335Z" fill="#F9A826"/>
<path d="M588.705 254.648C590.22 254.648 591.448 253.239 591.448 251.5C591.448 249.762 590.22 248.353 588.705 248.353C587.191 248.353 585.963 249.762 585.963 251.5C585.963 253.239 587.191 254.648 588.705 254.648Z" fill="white"/>
</g>
<g clip-path="url(#clip1_4:539)">
<path d="M501.726 279.088C535.075 279.088 562.11 251.99 562.11 218.562C562.11 185.135 535.075 158.036 501.726 158.036C468.378 158.036 441.343 185.135 441.343 218.562C441.343 251.99 468.378 279.088 501.726 279.088Z" fill="#FFB8B8"/>
<path d="M456.658 248.825C456.658 248.825 468.034 334.79 450.532 344.439C433.03 354.088 554.671 354.965 554.671 354.965C554.671 354.965 527.542 280.404 539.794 257.597L456.658 248.825Z" fill="#FFB8B8"/>
<path d="M643.494 355.4L633.378 401.575L611.987 499.266L611.347 504.616L603.965 566.553L599.055 607.698L595.762 635.337C575.743 645.651 561.233 652.77 561.233 652.77C561.233 652.77 559.985 646.498 557.973 638.473C543.924 642.696 517.926 649.7 495.895 651.099C503.918 660.063 507.605 668.483 502.604 674.697C487.511 693.43 425.204 654.186 403.411 639.552C402.903 643.055 402.711 646.598 402.836 650.136L386.159 637.28L387.809 607.698L390.593 557.647L394.091 494.879C392.988 492.191 392.063 489.433 391.324 486.623C386.216 468.417 380.017 432.062 375.262 401.575C371.436 377.039 368.562 356.305 367.954 351.894C367.872 351.318 367.831 351.021 367.831 351.021L460.151 310.131C466.712 325.382 497.349 329.967 497.349 329.967C522.73 328.214 542.626 314.798 542.626 314.798L643.494 355.4Z" fill="#D0CDE1"/>
<path d="M568.237 635.23C568.237 635.23 564.329 636.572 557.973 638.473C543.923 642.696 517.926 649.7 495.895 651.099C476.927 652.317 460.898 649.387 457.967 636.984C456.711 631.65 458.492 627.263 462.376 623.658C473.971 612.884 504.254 609.024 528.273 607.698C535.055 607.328 541.329 607.155 546.551 607.089C555.419 606.974 561.233 607.155 561.233 607.155L561.373 607.698L568.237 635.23Z" fill="#A0616A"/>
<path d="M451.493 161.31L440.203 156.78C440.203 156.78 463.81 130.729 496.654 132.994L487.416 122.8C487.416 122.8 509.997 113.739 530.524 137.525C541.315 150.028 553.8 164.726 561.584 181.282H573.675L568.628 192.42L586.29 203.557L568.162 201.557C569.242 207.656 569.408 213.883 568.654 220.031C567.876 226.181 564.745 231.788 559.922 235.668C559.922 235.668 545.92 206.617 545.92 202.086V213.412C545.92 213.412 534.63 203.219 534.63 196.423L528.471 204.351L525.392 191.892L487.416 204.351L493.575 194.157L469.968 197.555L479.206 185.096C479.206 185.096 452.52 199.821 451.493 212.28C450.467 224.739 442.656 236.545 442.656 236.545C442.656 236.545 421.728 178.3 451.493 161.31Z" fill="#2F2E41"/>
<path d="M709.128 567.68C702.977 574.364 687.737 584.43 669.262 595.328C662.389 599.377 655.072 603.55 647.608 607.698C629.798 617.6 611.15 627.411 595.762 635.337C575.742 645.651 561.233 652.77 561.233 652.77C561.233 652.77 559.985 646.498 557.973 638.473C555.28 627.732 551.223 613.847 546.995 607.698C546.847 607.484 546.699 607.287 546.551 607.089C545.319 605.468 544.08 604.521 542.856 604.521L603.965 566.553L630.373 550.141L611.347 504.616L587.485 447.511L601.887 401.575L616.364 355.4H643.494C643.494 355.4 652.478 375.055 663.965 402.464C665.681 406.563 667.455 410.834 669.262 415.246C692.894 472.862 722.356 553.318 709.128 567.68Z" fill="#D0CDE1"/>
<path d="M502.604 674.697C487.511 693.43 425.204 654.186 403.411 639.552C398.664 636.366 395.84 634.35 395.84 634.35L415.777 607.698L422.092 599.262C422.092 599.262 427.741 602.266 436.092 607.155C436.396 607.336 436.7 607.517 437.012 607.698C444.213 611.937 453.254 617.477 462.376 623.658C474.964 632.193 487.692 641.93 495.895 651.099C503.918 660.063 507.605 668.483 502.604 674.697Z" fill="#A0616A"/>
<path d="M436.092 607.155C433.863 607.147 431.638 607.328 429.441 607.698C410.563 610.95 404.995 628.078 403.411 639.552C402.903 643.056 402.711 646.598 402.836 650.136L386.159 637.28L380.082 632.597C365.458 627.485 352.426 618.407 341.127 607.698C331.326 598.245 322.533 587.793 314.892 576.512C307.282 565.394 300.497 553.729 294.594 541.613C292.946 538.232 292.061 534.53 292 530.768C291.939 527.005 292.704 523.276 294.241 519.843L314.892 473.709L345.077 406.283C345.299 404.678 345.542 403.109 345.808 401.575C351.794 367.17 367.831 351.894 367.831 351.894H380.082L388.277 401.575L398.459 463.297L391.323 486.624L374.835 540.494L390.593 557.647L436.092 607.155Z" fill="#D0CDE1"/>
<path d="M449.958 463.347L460.431 475.595C464.323 474.851 468.386 473.977 472.571 472.996L469.563 463.347L476.918 471.948C521.258 461.017 576.216 439.765 576.216 439.765C576.216 439.765 516.883 444.126 472.582 434.424C452.981 430.132 432.813 439.871 424.77 458.295C420.095 469.004 420.829 478.282 437.41 478.282C443.013 478.186 448.6 477.659 454.123 476.706L449.958 463.347Z" fill="#F9A826"/>
<path d="M688.723 664.655V669.652C688.725 671.023 688.472 672.382 687.975 673.66C687.755 674.229 687.488 674.78 687.179 675.306C686.2 676.953 684.812 678.316 683.149 679.263C681.486 680.209 679.607 680.706 677.695 680.706H311.016C309.104 680.706 307.225 680.209 305.562 679.263C303.9 678.316 302.511 676.953 301.532 675.306C301.223 674.78 300.956 674.229 300.736 673.66C300.239 672.382 299.986 671.023 299.989 669.652V664.655C299.988 663.204 300.273 661.766 300.827 660.425C301.381 659.084 302.194 657.865 303.218 656.838C304.242 655.812 305.458 654.998 306.796 654.442C308.134 653.887 309.568 653.601 311.016 653.602H332.153V651.272C332.152 651.212 332.164 651.152 332.187 651.096C332.21 651.04 332.244 650.989 332.287 650.946C332.33 650.903 332.38 650.869 332.436 650.846C332.492 650.823 332.552 650.811 332.612 650.811H343.64C343.701 650.811 343.76 650.823 343.816 650.846C343.872 650.869 343.923 650.903 343.966 650.946C344.008 650.989 344.042 651.04 344.065 651.096C344.088 651.152 344.1 651.212 344.1 651.272V653.602H350.989V651.272C350.989 651.212 351.001 651.152 351.024 651.096C351.047 651.04 351.081 650.989 351.124 650.946C351.167 650.903 351.217 650.869 351.273 650.846C351.329 650.823 351.389 650.811 351.449 650.811H362.477C362.537 650.811 362.597 650.823 362.653 650.846C362.709 650.869 362.76 650.903 362.802 650.946C362.845 650.989 362.879 651.04 362.902 651.096C362.925 651.152 362.937 651.212 362.937 651.272V653.602H369.834V651.272C369.834 651.212 369.846 651.152 369.869 651.096C369.892 651.04 369.926 650.989 369.969 650.946C370.012 650.903 370.062 650.869 370.118 650.846C370.174 650.823 370.234 650.811 370.294 650.811H381.322C381.383 650.811 381.442 650.823 381.498 650.846C381.554 650.869 381.605 650.903 381.647 650.946C381.69 650.989 381.724 651.04 381.747 651.096C381.77 651.152 381.782 651.212 381.782 651.272V653.602H388.671V651.272C388.671 651.212 388.683 651.152 388.706 651.096C388.729 651.04 388.763 650.989 388.806 650.946C388.848 650.903 388.899 650.869 388.955 650.846C389.011 650.823 389.071 650.811 389.131 650.811H400.159C400.219 650.811 400.279 650.823 400.335 650.846C400.391 650.869 400.442 650.903 400.484 650.946C400.527 650.989 400.561 651.04 400.584 651.096C400.607 651.152 400.619 651.212 400.619 651.272V653.602H407.508V651.272C407.508 651.212 407.52 651.152 407.543 651.096C407.566 651.04 407.6 650.989 407.643 650.946C407.685 650.903 407.736 650.869 407.792 650.846C407.848 650.823 407.908 650.811 407.968 650.811H418.996C419.056 650.811 419.116 650.823 419.172 650.846C419.228 650.869 419.278 650.903 419.321 650.946C419.364 650.989 419.398 651.04 419.421 651.096C419.444 651.152 419.456 651.212 419.456 651.272V653.602H426.353V651.272C426.353 651.212 426.365 651.152 426.388 651.096C426.411 651.04 426.445 650.989 426.488 650.946C426.53 650.903 426.581 650.869 426.637 650.846C426.693 650.823 426.753 650.811 426.813 650.811H437.841C437.901 650.811 437.961 650.823 438.017 650.846C438.073 650.869 438.124 650.903 438.166 650.946C438.209 650.989 438.243 651.04 438.266 651.096C438.289 651.152 438.301 651.212 438.301 651.272V653.602H445.19V651.272C445.19 651.212 445.202 651.152 445.225 651.096C445.248 651.04 445.282 650.989 445.325 650.946C445.367 650.903 445.418 650.869 445.474 650.846C445.53 650.823 445.589 650.811 445.65 650.811H532.033C532.094 650.811 532.154 650.823 532.209 650.846C532.265 650.869 532.316 650.903 532.359 650.946C532.402 650.989 532.435 651.04 532.458 651.096C532.481 651.152 532.493 651.212 532.493 651.272V653.602H539.391V651.272C539.391 651.212 539.402 651.152 539.426 651.096C539.449 651.04 539.483 650.989 539.525 650.946C539.568 650.903 539.619 650.869 539.675 650.846C539.73 650.823 539.79 650.811 539.851 650.811H550.878C551 650.813 551.116 650.861 551.202 650.948C551.288 651.034 551.337 651.15 551.338 651.272V653.602H558.228V651.272C558.228 651.212 558.239 651.152 558.262 651.096C558.286 651.04 558.319 650.989 558.362 650.946C558.405 650.903 558.456 650.869 558.511 650.846C558.567 650.823 558.627 650.811 558.688 650.811H569.715C569.776 650.811 569.836 650.823 569.891 650.846C569.947 650.869 569.998 650.903 570.041 650.946C570.083 650.989 570.117 651.04 570.14 651.096C570.163 651.152 570.175 651.212 570.175 651.272V653.602H577.065V651.272C577.064 651.212 577.076 651.152 577.099 651.096C577.122 651.04 577.156 650.989 577.199 650.946C577.242 650.903 577.292 650.869 577.348 650.846C577.404 650.823 577.464 650.811 577.524 650.811H588.552C588.613 650.811 588.672 650.823 588.728 650.846C588.784 650.869 588.835 650.903 588.878 650.946C588.92 650.989 588.954 651.04 588.977 651.096C589 651.152 589.012 651.212 589.012 651.272V653.602H595.91V651.272C595.91 651.212 595.921 651.152 595.944 651.096C595.968 651.04 596.001 650.989 596.044 650.946C596.087 650.903 596.138 650.869 596.193 650.846C596.249 650.823 596.309 650.811 596.37 650.811H607.397C607.518 650.813 607.633 650.862 607.718 650.948C607.802 651.035 607.85 651.151 607.849 651.272V653.602H614.746V651.272C614.746 651.212 614.758 651.152 614.781 651.096C614.804 651.04 614.838 650.989 614.881 650.946C614.924 650.903 614.974 650.869 615.03 650.846C615.086 650.823 615.146 650.811 615.206 650.811H626.234C626.295 650.811 626.354 650.823 626.41 650.846C626.466 650.869 626.517 650.903 626.56 650.946C626.602 650.989 626.636 651.04 626.659 651.096C626.682 651.152 626.694 651.212 626.694 651.272V653.602H633.583V651.272C633.583 651.212 633.595 651.152 633.618 651.096C633.641 651.04 633.675 650.989 633.718 650.946C633.761 650.903 633.811 650.869 633.867 650.846C633.923 650.823 633.983 650.811 634.043 650.811H645.071C645.131 650.811 645.191 650.823 645.247 650.846C645.303 650.869 645.354 650.903 645.396 650.946C645.439 650.989 645.473 651.04 645.496 651.096C645.519 651.152 645.531 651.212 645.531 651.272V653.602H677.695C679.143 653.601 680.577 653.887 681.915 654.442C683.254 654.998 684.469 655.812 685.493 656.838C686.518 657.865 687.33 659.084 687.884 660.425C688.438 661.766 688.723 663.204 688.723 664.655Z" fill="#3F3D56"/>
<path d="M795.347 673.66H193.454V675.306H795.347V673.66Z" fill="#3F3D56"/>
<path d="M659.198 454.252H522.526V451.429H460.553V454.252H323.318C320.866 454.252 318.514 455.229 316.781 456.966C315.047 458.704 314.073 461.061 314.073 463.519V651.108C314.073 653.566 315.047 655.923 316.78 657.661C318.514 659.399 320.866 660.375 323.318 660.375H659.198C661.65 660.375 664.001 659.399 665.735 657.661C667.469 655.923 668.443 653.566 668.443 651.108V463.519C668.443 462.302 668.204 461.097 667.739 459.973C667.275 458.848 666.594 457.827 665.735 456.966C664.877 456.106 663.858 455.423 662.736 454.958C661.614 454.492 660.412 454.252 659.198 454.252Z" fill="#3F3D56"/>
<path d="M491.527 540.321C502.864 540.321 512.055 531.109 512.055 519.744C512.055 508.38 502.864 499.167 491.527 499.167C480.189 499.167 470.998 508.38 470.998 519.744C470.998 531.109 480.189 540.321 491.527 540.321Z" stroke="#D0CDE1" stroke-width="2" stroke-miterlimit="10"/>
<path d="M484.958 547.729C496.295 547.729 505.486 538.516 505.486 527.152C505.486 515.788 496.295 506.575 484.958 506.575C473.62 506.575 464.429 515.788 464.429 527.152C464.429 538.516 473.62 547.729 484.958 547.729Z" fill="#D0CDE1"/>
<path d="M232.824 665.344H209.833V688.39H232.824V665.344Z" fill="#D0CDE1"/>
<path d="M218.868 647.237V675.221H246.787V647.237H218.868ZM245.572 674.003H220.075V648.455H245.572V674.003Z" fill="#3F3D56"/>
<path d="M764.921 665.344H741.929V688.39H764.921V665.344Z" fill="#D0CDE1"/>
<path d="M750.965 647.237V675.221H778.883V647.237H750.965ZM777.668 674.003H752.172V648.455H777.668V674.003Z" fill="#3F3D56"/>
<path d="M267.433 614.751C268.2 641.048 252.87 650.685 233.633 651.248C233.186 651.261 232.741 651.27 232.298 651.272C231.406 651.279 230.523 651.264 229.648 651.228C212.249 650.504 198.477 641.246 197.765 616.79C197.027 591.481 228.368 558.596 230.719 556.163L230.723 556.161C230.813 556.068 230.858 556.022 230.858 556.022C230.858 556.022 266.667 588.455 267.433 614.751Z" fill="#D0CDE1"/>
<path d="M232.248 647.263L244.468 629.047L232.273 649.223L232.298 651.272C231.406 651.279 230.523 651.264 229.648 651.228L230.254 624.88L230.237 624.676L230.26 624.637L230.318 622.147L216.935 602.671L230.302 620.284L230.349 620.81L230.807 600.903L219.248 580.711L230.84 597.406L230.719 556.163L230.719 556.026L230.723 556.161L231.491 588.666L242.025 575.462L231.525 591.466L231.755 609.272L241.449 591.894L231.791 611.89L231.919 621.792L246.016 597.584L231.961 625.246L232.248 647.263Z" fill="#3F3D56"/>
<path d="M799.53 614.751C800.296 641.048 784.967 650.685 765.729 651.248C765.282 651.261 764.837 651.27 764.394 651.272C763.502 651.279 762.619 651.264 761.744 651.228C744.345 650.504 730.574 641.246 729.861 616.79C729.124 591.481 760.464 558.596 762.815 556.163L762.819 556.161C762.909 556.068 762.954 556.022 762.954 556.022C762.954 556.022 798.763 588.455 799.53 614.751Z" fill="#D0CDE1"/>
<path d="M764.344 647.263L776.564 629.047L764.369 649.223L764.394 651.272C763.502 651.279 762.619 651.264 761.744 651.228L762.35 624.88L762.333 624.676L762.356 624.637L762.414 622.147L749.031 602.671L762.398 620.284L762.446 620.81L762.903 600.903L751.344 580.711L762.936 597.406L762.815 556.163L762.815 556.026L762.819 556.161L763.587 588.666L774.122 575.462L763.621 591.466L763.851 609.272L773.545 591.894L763.887 611.89L764.015 621.792L778.113 597.584L764.058 625.246L764.344 647.263Z" fill="#3F3D56"/>
</g>
<defs>
<clipPath id="clip0_4:539">
<rect width="843" height="784" fill="white"/>
</clipPath>
<clipPath id="clip1_4:539">
<rect width="655.782" height="567.285" fill="white" transform="translate(143.775 121.106)"/>
</clipPath>
</defs>
</svg>
