<svg width="40" height="40" viewBox="0 0 40 40" fill="none" xmlns="http://www.w3.org/2000/svg">
<path d="M25.5166 14.4837C30.1843 19.1563 30.1203 26.6476 25.5447 31.2485C25.5361 31.2579 25.526 31.268 25.5166 31.2774L20.2666 36.5274C15.6361 41.1578 8.10262 41.1572 3.47285 36.5274C-1.15762 31.8977 -1.15762 24.3634 3.47285 19.7337L6.37176 16.8348C7.14051 16.066 8.46442 16.577 8.5041 17.6634C8.55473 19.0479 8.80301 20.4389 9.26114 21.7822C9.41629 22.237 9.30543 22.7402 8.96559 23.08L7.94317 24.1024C5.75363 26.2919 5.68496 29.8571 7.85293 32.068C10.0423 34.3008 13.6409 34.314 15.8471 32.1079L21.0971 26.8587C23.2995 24.6562 23.2903 21.0964 21.0971 18.9032C20.8079 18.6146 20.5167 18.3904 20.2892 18.2338C20.1282 18.1232 19.9954 17.9766 19.9011 17.8056C19.8069 17.6346 19.754 17.444 19.7465 17.2489C19.7155 16.4234 20.008 15.5727 20.6604 14.9203L22.3052 13.2754C22.7365 12.8441 23.4132 12.7911 23.9133 13.1402C24.4861 13.5402 25.0226 13.9897 25.5166 14.4837ZM36.5272 3.47261C31.8974 -1.15722 24.3639 -1.15785 19.7334 3.47261L14.4834 8.7226C14.474 8.73198 14.4639 8.74213 14.4553 8.75151C9.87981 13.3524 9.81567 20.8437 14.4834 25.5163C14.9774 26.0103 15.5139 26.4598 16.0866 26.8598C16.5868 27.2088 17.2635 27.1558 17.6947 26.7245L19.3396 25.0796C19.9919 24.4273 20.2844 23.5766 20.2535 22.751C20.246 22.5559 20.193 22.3653 20.0988 22.1943C20.0046 22.0233 19.8717 21.8767 19.7107 21.7662C19.4832 21.6095 19.192 21.3853 18.9029 21.0967C16.7097 18.9035 16.7004 15.3437 18.9029 13.1413L24.1529 7.89205C26.359 5.68589 29.9575 5.69917 32.147 7.9319C34.315 10.1428 34.2464 13.708 32.0568 15.8975L31.0343 16.9199C30.6945 17.2598 30.5836 17.7629 30.7388 18.2177C31.1969 19.561 31.4452 20.952 31.4958 22.3366C31.5356 23.423 32.8594 23.9339 33.6282 23.1652L36.5271 20.2662C41.1576 15.6366 41.1576 8.10229 36.5272 3.47261Z" fill="white"/>
</svg>
