<svg width="32" height="36" viewBox="0 0 32 36" fill="none" xmlns="http://www.w3.org/2000/svg">
<path d="M29.7143 2.25H2.27857C1.02143 2.25 0 3.26953 0 4.5211V31.4789C0 32.7305 1.02143 33.75 2.27857 33.75H29.7143C30.9715 33.75 32 32.7305 32 31.4789V4.5211C32 3.26953 30.9715 2.25 29.7143 2.25ZM9.67142 29.25H4.92857V14.2172H9.67859V29.25H9.67142ZM7.29997 12.164C5.77857 12.164 4.55 10.9477 4.55 9.45702C4.55 7.96638 5.77857 6.75 7.29997 6.75C8.81427 6.75 10.05 7.96638 10.05 9.45702C10.05 10.9547 8.82144 12.164 7.29997 12.164ZM27.45 29.25H22.7071V21.9375C22.7071 20.1938 22.6714 17.9508 20.2429 17.9508C17.7715 17.9508 17.3928 19.8492 17.3928 21.811V29.25H12.65V14.2172H17.2V16.2703H17.2643C17.9 15.089 19.45 13.8445 21.7571 13.8445C26.5571 13.8445 27.45 16.9594 27.45 21.0094V29.25Z" fill="white"/>
</svg>
