<svg width="51" height="41" viewBox="0 0 51 41" fill="none" xmlns="http://www.w3.org/2000/svg">
<g filter="url(#filter0_b_57:3)">
<path d="M43.3614 5.95781C38.5915 2.11406 32.2393 0 25.4886 0C11.5547 0 0.216295 9.11518 0.216295 20.317C0.216295 23.8953 1.37746 27.3913 3.58594 30.4754L0 41L13.3989 38.1721C17.0873 39.792 21.2424 40.6431 25.4772 40.6431H25.4886C39.4112 40.6431 51 31.5279 51 20.3261C51 14.8991 48.1313 9.80156 43.3614 5.95781ZM25.4886 37.2203C21.7092 37.2203 18.0094 36.4058 14.7877 34.8683L14.025 34.5022L6.07902 36.177L8.19643 29.9446L7.69554 29.304C5.58951 26.6134 4.48527 23.5109 4.48527 20.317C4.48527 11.0096 13.9112 3.43192 25.5 3.43192C31.1123 3.43192 36.383 5.18906 40.3446 8.38304C44.3062 11.577 46.7424 15.8143 46.731 20.3261C46.731 29.6426 37.0661 37.2203 25.4886 37.2203ZM37.0092 24.5725C36.383 24.3163 33.2752 23.09 32.6946 22.9252C32.1141 22.7513 31.6929 22.669 31.2717 23.1815C30.8504 23.694 29.6437 24.8288 29.2681 25.1766C28.9038 25.5152 28.5281 25.5609 27.902 25.3047C24.1908 23.8129 21.7547 22.6415 19.3071 19.2645C18.6583 18.3676 19.956 18.4317 21.1627 16.4915C21.3676 16.1529 21.2652 15.86 21.1058 15.6038C20.9464 15.3475 19.6828 12.8491 19.1592 11.8333C18.6469 10.8449 18.1232 10.9821 17.7362 10.9638C17.3719 10.9455 16.9507 10.9455 16.5295 10.9455C16.1083 10.9455 15.4252 11.0737 14.8446 11.577C14.2641 12.0895 12.6362 13.3158 12.6362 15.8143C12.6362 18.3127 14.9016 20.7288 15.2089 21.0674C15.5277 21.406 19.66 26.531 26.0009 28.7366C30.008 30.1277 31.579 30.2467 33.5826 30.0087C34.8007 29.8623 37.3165 28.7824 37.8402 27.5926C38.3638 26.4029 38.3638 25.3871 38.2045 25.1766C38.0565 24.9478 37.6353 24.8196 37.0092 24.5725Z" fill="white"/>
</g>
<defs>
<filter id="filter0_b_57:3" x="-4" y="-4" width="59" height="49" filterUnits="userSpaceOnUse" color-interpolation-filters="sRGB">
<feFlood flood-opacity="0" result="BackgroundImageFix"/>
<feGaussianBlur in="BackgroundImage" stdDeviation="2"/>
<feComposite in2="SourceAlpha" operator="in" result="effect1_backgroundBlur_57:3"/>
<feBlend mode="normal" in="SourceGraphic" in2="effect1_backgroundBlur_57:3" result="shape"/>
</filter>
</defs>
</svg>
