<svg width="51" height="41" viewBox="0 0 51 41" fill="none" xmlns="http://www.w3.org/2000/svg">
<path d="M1.82149 7.53061H49.1786C50.1846 7.53061 51.0001 6.78142 51.0001 5.85715V1.67347C51.0001 0.749194 50.1846 2.35651e-06 49.1786 2.35651e-06H1.82149C0.815496 2.35651e-06 6.5097e-05 0.749194 6.5097e-05 1.67347V5.85715C6.5097e-05 6.78142 0.815496 7.53061 1.82149 7.53061ZM1.82149 24.2653H49.1786C50.1846 24.2653 51.0001 23.5161 51.0001 22.5918V18.4082C51.0001 17.4839 50.1846 16.7347 49.1786 16.7347H1.82149C0.815496 16.7347 6.5097e-05 17.4839 6.5097e-05 18.4082V22.5918C6.5097e-05 23.5161 0.815496 24.2653 1.82149 24.2653ZM1.82149 41H49.1786C50.1846 41 51.0001 40.2508 51.0001 39.3265V35.1429C51.0001 34.2186 50.1846 33.4694 49.1786 33.4694H1.82149C0.815496 33.4694 6.5097e-05 34.2186 6.5097e-05 35.1429V39.3265C6.5097e-05 40.2508 0.815496 41 1.82149 41Z" fill="#F9A826"/>
</svg>
